<?xml version="1.0" standalone="no"?>
<!DOCTYPE svg PUBLIC "-//W3C//DTD SVG 20010904//EN"
 "http://www.w3.org/TR/2001/REC-SVG-20010904/DTD/svg10.dtd">
<svg version="1.0" xmlns="http://www.w3.org/2000/svg"
 width="300.000000pt" height="259.000000pt" viewBox="0 0 300.000000 259.000000"
 preserveAspectRatio="xMidYMid meet">
<metadata>
Created by emmanuel
</metadata>
<g transform="translate(0.000000,259.000000) scale(0.100000,-0.100000)"
fill="#000000" stroke="none">
<path d="M1288 2033 l-138 -4 0 -59 c0 -43 4 -60 13 -60 11 0 15 -72 20 -377
4 -207 7 -460 7 -563 l0 -186 52 -20 c29 -10 56 -21 61 -22 4 -2 5 262 1 588
l-7 592 244 -3 c237 -4 245 -5 293 -29 67 -33 89 -66 94 -139 6 -83 -18 -161
-63 -199 -40 -36 -82 -46 -164 -40 l-59 4 -11 -55 c-6 -30 -8 -57 -5 -60 3 -3
38 -7 79 -9 182 -10 303 83 335 255 34 176 -44 323 -193 368 -57 17 -311 25
-559 18z m548 -53 c78 -26 110 -53 153 -130 19 -35 26 -159 12 -217 -7 -26
-27 -71 -46 -100 -43 -65 -117 -103 -203 -105 -62 -2 -82 5 -82 28 0 10 14 14
50 15 28 1 53 2 58 4 4 1 21 5 37 10 64 18 132 96 137 158 1 15 5 27 8 27 10
0 10 84 1 105 -5 11 -12 32 -15 48 -8 35 -82 107 -110 107 -12 0 -26 4 -31 9
-11 11 -73 13 -320 12 -151 -1 -173 -4 -195 -21 l-25 -19 4 -556 c2 -461 0
-556 -11 -553 -32 11 -37 51 -39 318 -4 768 -5 790 -17 802 -7 7 -12 25 -12
40 0 24 4 28 28 29 15 1 76 3 135 4 60 2 110 5 112 7 8 8 338 -11 371 -22z"/>
<path d="M1412 1639 c-65 -106 -72 -122 -58 -132 14 -11 16 -59 18 -397 l3
-385 58 -3 57 -3 0 521 c0 286 -1 520 -2 520 -2 -1 -36 -55 -76 -121z m40
-451 c1 -228 -2 -420 -6 -427 -6 -10 -12 -9 -26 4 -16 14 -17 44 -17 368 0
193 -3 362 -7 375 -5 15 -2 32 10 50 21 32 38 51 42 47 2 -2 4 -189 4 -417z"/>
</g>
</svg>
